<?xml version="1.0" standalone="yes"?>
<svg xmlns="http://www.w3.org/2000/svg" width="35" height="35">
<path style="fill:#ffffff; stroke:none;" d="M0 0L0 35L35 35L35 0L0 0z"/>
<path style="fill:#fffadb; stroke:none;" d="M10 10L10.0556 11.3889L9.5 12.3333L9.30556 12.6389L8 13L8.77778 13.7222L9.30556 13.75L10.0556 13.9444L10.9722 13.9722L13 14L12.8333 12.5556L12.8333 11.4444L13 10L10 10z"/>
<path style="fill:#c2aba2; stroke:none;" d="M8 11L9 12L8 11z"/>
<path style="fill:#af7f63; stroke:none;" d="M10.3333 11.6667L10.3333 12L10.6667 12.3333L10.6667 12L10.3333 11.6667z"/>
<path style="fill:#b0856b; stroke:none;" d="M12.3333 11.6667L12.3333 12.3333L12.6667 12.3333L12.6667 12L12.3333 11.6667z"/>
<path style="fill:#deb094; stroke:none;" d="M6 12L7 13L6 12z"/>
<path style="fill:#916852; stroke:none;" d="M8 12L9 13L8 12z"/>
<path style="fill:#a17861; stroke:none;" d="M14 12L15 13L14 12z"/>
<path style="fill:#ffffdd; stroke:none;" d="M15 12L13 14L13.4444 15.4722L14.0278 16.75L14.1944 17.2222L15 18L15.6667 16.5278L15.6111 16.0278L15.7778 15.1667L15.7778 13.7222L15.6111 13.0833L15.6667 12.6944L15 12z"/>
<path style="fill:#bd8462; stroke:none;" d="M6 13L7 14L6 13z"/>
<path style="fill:#fff5b9; stroke:none;" d="M7 13L6.30556 14.5L6.30556 15.0556L6.19444 16.0556L6.22222 17.9444L6.16667 19.5L6 21L7.66667 20.8056L9.22222 20.8611L10.0278 20.9444L11.5 21L13 21L12.2222 20.1944L11.75 20.0278L10.4722 19.4444L9 19L11 17L12 17L11.2222 16.2778L10.6944 16.25L9.94444 16.0556L9.02778 16.0278L7 16L7.5 14.25L7.66667 13.7222L7 13z"/>
<path style="fill:#c79370; stroke:none;" d="M13 13L14 14L13 13z"/>
<path style="fill:#d8a381; stroke:none;" d="M4.66667 14.3333L4.66667 14.6667L5.33333 14.6667L5.33333 14.3333L4.66667 14.3333z"/>
<path style="fill:#c1815b; stroke:none;" d="M8 14L8.77778 14.7222L9.30556 14.75L10.0556 14.9444L10.9722 14.9722L13 15L12.2222 14.2778L11.6944 14.25L10.9444 14.0556L10.0278 14.0278L8 14z"/>
<path style="fill:#a2795e; stroke:none;" d="M15 14L16 15L15 14z"/>
<path style="fill:#cdbab2; stroke:none;" d="M16 14L17 15L16 14z"/>
<path style="fill:#ffffd4; stroke:none;" d="M4 15L4 20L4.72222 19.2222L4.75 18.6944L4.91667 17.0833L4.75 16.3056L4.72222 15.7778L4 15z"/>
<path style="fill:#e3d17e; stroke:none;" d="M5 15L5 20L6.11111 19.2222L6.47222 17.9167L6.44444 17.0833L6.11111 16.3056L5.97222 15.7778L5 15z"/>
<path style="fill:#a3764c; stroke:none;" d="M7 15L8 16L7 15z"/>
<path style="fill:#ffffd5; stroke:none;" d="M8 15L8.77778 15.7222L9.25 15.75L10.0556 15.9444L12 16L11.2222 15.2778L10.75 15.25L9.94444 15.0556L8 15z"/>
<path style="fill:#f5e38c; stroke:none;" d="M12 15L11.2778 16.1944L10.75 16.5833L9 18L9.77778 19.1389L11.1111 19.7222L12.9722 19.9167L13.9167 19.8611L15.5278 19.8056L17 20L16.8889 18.6111L16.3333 17.7222L15.7222 17.5833L15.3889 17.3889L14 18L13.3333 16.25L13.1389 15.7222L12 15z"/>
<path style="fill:#aa612a; stroke:none;" d="M13 15L14 16L13 15z"/>
<path style="fill:#b17752; stroke:none;" d="M16.6667 16.3333L16.6667 16.6667L17.3333 16.6667L17 16.3333L16.6667 16.3333z"/>
<path style="fill:#cba387; stroke:none;" d="M18 16L19 17L18 16z"/>
<path style="fill:#faad7b; stroke:none;" d="M24 16L24.0556 17.3889L23.5 18.3333L23.3056 18.6389L22 19L22.7778 19.7222L23.3056 19.75L24.0556 19.9444L24.9722 19.9722L27 20L26.8889 18.5278L26.3333 17.2778L25.3889 16.3611L24 16z"/>
<path style="fill:#ffffd8; stroke:none;" d="M17 17L17 19L19 19L19 17L17 17z"/>
<path style="fill:#e7b696; stroke:none;" d="M19 17L20 18L19 17z"/>
<path style="fill:#b57d5d; stroke:none;" d="M20 17L21 18L20 17z"/>
<path style="fill:#c88358; stroke:none;" d="M21 19L22.75 18.3333L23.2778 18.1389L24 17L22.25 17.6667L21.7222 17.8611L21 19z"/>
<path style="fill:#d77433; stroke:none;" d="M24.3333 17.6667L24.3333 18.3333L24.6667 18.3333L24.6667 18L24.3333 17.6667z"/>
<path style="fill:#c1987d; stroke:none;" d="M27 17L27.8333 18.75L28.0278 19.2778L29 20L29.3611 18.6111L29.0833 18.2778L28.3611 17.3611L27 17z"/>
<path style="fill:#be754f; stroke:none;" d="M30 17L30.4167 18.4444L30.75 19.5556L31 21L31.7222 20.2222L31.7222 19.7222L31.8333 19L31.3333 17.7222L31.1389 17.3611L30 17z"/>
<path style="fill:#b5714b; stroke:none;" d="M19 18L20 19L19 18z"/>
<path style="fill:#ffffdc; stroke:none;" d="M20 18L21 19L20 18z"/>
<path style="fill:#ffffdb; stroke:none;" d="M23 18L24 19L23 18z"/>
<path style="fill:#ffffd2; stroke:none;" d="M30 18L31 19L30 18z"/>
<path style="fill:#b77855; stroke:none;" d="M17 19L18 20L17 19z"/>
<path style="fill:#fdc4a2; stroke:none;" d="M18.6667 19.3333L19 19.6667L19.3333 19.6667L19.3333 19.3333L18.6667 19.3333z"/>
<path style="fill:#b07c55; stroke:none;" d="M20 19L21 20L20 19z"/>
<path style="fill:#ffffe1; stroke:none;" d="M29 19L30 20L29 19z"/>
<path style="fill:#f6ac80; stroke:none;" d="M30 19L29 21L31 21L31 19L30 19z"/>
<path style="fill:#975c37; stroke:none;" d="M7 20L8 21L7 20z"/>
<path style="fill:#9b5f2c; stroke:none;" d="M13 20L14 21L13 20z"/>
<path style="fill:#8f533f; stroke:none;" d="M8 21L9 22L8 21z"/>
<path style="fill:#dfa88d; stroke:none;" d="M9.66667 21.3333L10 21.6667L10.3333 21.6667L10 21.3333L9.66667 21.3333z"/>
<path style="fill:#ac6649; stroke:none;" d="M11.6667 21.3333L12 21.6667L12.3333 21.6667L12 21.3333L11.6667 21.3333z"/>
<path style="fill:#eddbcd; stroke:none;" d="M9.66667 22.3333L10 22.6667L10.3333 22.6667L10 22.3333L9.66667 22.3333z"/>
</svg>
